PathFileType	4	(X/Y/Z)	C:\Users\Basilio\Documents\Thesis Gigler\squatting_fais\c3dfiles\041\SLS_pre_back4\markers_experimental.trc
DataRate	CameraRate	NumFrames	NumMarkers	Units	OrigDataRate	OrigDataStartFrame	OrigNumFrames
200.000000	200.000000	4	64	mm	200.000000	0	1272
Frame#	Time	FHD			LBHD			RBHD			C7			T10			CLAV			LSHO			LUUPA			LMUPA			LDUPA			LLEP			LMEP			LRAD			LUL			LRFIN			RSHO			RUPA1			RMUPA			RDUPA			RLEP			RMEP			RRAD			RUL			RUFIN			LASI			RASI			USACR			LSACR			RSACR			LTHI1			LTHI2			LTHI3			LTHI4			LLFC			LMFC			LTIB1			LTIB2			LTIB3			LTIB4			LLMAL			LMMAL			LHEE			LMT1			LMT2			LMT5			RTHI			RTHI2			RTHI3			RTHI4			RLFC			RMFC			RTIB1			RTIB2			RTIB3			RTIB4			RLMAL			RMMAL			RHEE			RMT1			RMT2			RMT5			*61			*62			*63			
		X1	Y1	Z1	X2	Y2	Z2	X3	Y3	Z3	X4	Y4	Z4	X5	Y5	Z5	X6	Y6	Z6	X7	Y7	Z7	X8	Y8	Z8	X9	Y9	Z9	X10	Y10	Z10	X11	Y11	Z11	X12	Y12	Z12	X13	Y13	Z13	X14	Y14	Z14	X15	Y15	Z15	X16	Y16	Z16	X17	Y17	Z17	X18	Y18	Z18	X19	Y19	Z19	X20	Y20	Z20	X21	Y21	Z21	X22	Y22	Z22	X23	Y23	Z23	X24	Y24	Z24	X25	Y25	Z25	X26	Y26	Z26	X27	Y27	Z27	X28	Y28	Z28	X29	Y29	Z29	X30	Y30	Z30	X31	Y31	Z31	X32	Y32	Z32	X33	Y33	Z33	X34	Y34	Z34	X35	Y35	Z35	X36	Y36	Z36	X37	Y37	Z37	X38	Y38	Z38	X39	Y39	Z39	X40	Y40	Z40	X41	Y41	Z41	X42	Y42	Z42	X43	Y43	Z43	X44	Y44	Z44	X45	Y45	Z45	X46	Y46	Z46	X47	Y47	Z47	X48	Y48	Z48	X49	Y49	Z49	X50	Y50	Z50	X51	Y51	Z51	X52	Y52	Z52	X53	Y53	Z53	X54	Y54	Z54	X55	Y55	Z55	X56	Y56	Z56	X57	Y57	Z57	X58	Y58	Z58	X59	Y59	Z59	X60	Y60	Z60	X61	Y61	Z61	X62	Y62	Z62	X63	Y63	Z63	X64	Y64	Z64	

1	0	-183.4801330566407	1773.066284179688	-1111.372802734375	-359.3398132324219	1696.15087890625	-1179.488891601563	-333.2410583496094	1700.537231445313	-1028.494262695313	-389.1717224121095	1548.3837890625	-1113.852172851563	-405.5196533203126	1234.900146484375	-1095.756713867188	-228.8598175048829	1492.997924804688	-1123.371826171875	-321.3158874511719	1547.700805664063	-1272.421508789063	-263.7139892578126	1480.8623046875	-1428.5009765625	-216.1978149414063	1492.923828125	-1431.152465820313	-225.5935363769532	1462.184204101563	-1483.52197265625	-189.5331420898438	1447.462768554688	-1515.506103515625	-152.629867553711	1377.886108398438	-1480.751708984375	85.92466735839845	1444.073608398438	-1570.955078125	54.98350906372072	1430.227661132813	-1636.092529296875	139.4163055419922	1484.750122070313	-1603.931762695313	-293.8372192382813	1563.652587890625	-973.1362304687502	-180.0448760986328	1472.957153320313	-829.968933105469	-148.7582550048828	1507.552368164063	-847.8292236328127	-112.5205001831055	1479.23193359375	-810.4856567382815	-66.76721954345705	1475.323364257813	-799.1395263671877	-55.21260452270509	1402.286010742188	-846.4419555664065	186.7635955810547	1482.767333984375	-895.6570434570315	195.5808105468751	1458.6142578125	-824.0270996093752	260.3523559570313	1509.776000976563	-899.519958496094	-227.4368438720704	1046.761108398438	-1194.351318359375	-243.7998657226563	1045.124633789063	-966.7415771484377	-411.7618103027345	1124.899536132813	-1094.086547851563	-425.5090637207032	1098.946533203125	-1121.686767578125	-431.8993530273439	1099.757202148438	-1067.585205078125	-328.4329223632813	836.538757324219	-1253.356811523438	-292.6133728027344	761.7935791015626	-1235.9521484375	-245.5649566650391	767.2805175781251	-1224.651611328125	-318.9523315429688	709.1216430664064	-1225.019653320313	-302.1469726562501	529.8737182617189	-1187.650268554688	-312.7820739746094	524.8206787109376	-1068.533569335938	-292.1263122558594	343.3631896972657	-1109.803588867188	-334.5877685546876	296.1784362792969	-1173.001342773438	-297.7500305175782	293.4116210937501	-1141.720336914063	-312.0948181152344	220.3509979248047	-1102.23974609375	-372.4697570800782	126.7670135498047	-1137.3623046875	-343.5818786621094	137.4333190917969	-1053.854370117188	-441.5184936523439	111.9512634277344	-1097.902221679688	-239.1214447021485	62.66358947753908	-1050.958984375	-227.1871795654297	54.70089340209962	-1094.624877929688	-269.9428100585938	40.14130401611329	-1152.281494140625	-357.0212402343751	790.9118652343752	-882.6975097656252	-314.9218750000001	739.8067626953126	-870.568542480469	-282.2689208984376	742.8515625000001	-872.941589355469	-337.5412292480469	657.8684082031251	-878.080261230469	-342.9483642578126	566.0042724609376	-875.2173461914065	-322.5029602050782	519.6773681640626	-980.1438598632815	-463.9060974121095	459.5704956054689	-886.9826660156252	-565.9168090820314	501.5024719238282	-909.363708496094	-551.1760253906251	459.9853515625001	-893.8821411132815	-579.0924682617189	412.7509155273439	-918.5963134765627	-711.0759887695314	417.4258728027345	-935.4802246093752	-663.2283325195314	377.4356689453126	-995.1901855468752	-729.7160644531251	453.2068786621095	-1008.725341796875	-712.5360107421876	241.0450134277344	-971.2344970703127	-729.8876953125001	246.050765991211	-921.2882080078127	-775.2305908203127	291.3357543945313	-900.8969726562502	-4216.569335937501	853.1027832031252	-3944.870117187501	nan	nan	nan	nan	nan	nan	
2	0.005	-182.9814910888672	1773.12451171875	-1111.401733398438	-358.8479614257813	1696.108276367188	-1179.690307617188	-332.8231811523438	1700.505493164063	-1028.609619140625	-388.7315979003907	1548.413452148438	-1114.074340820313	-405.556365966797	1235.0302734375	-1095.807006835938	-228.5525817871094	1492.904907226563	-1123.482666015625	-320.8329467773438	1547.916870117188	-1272.217529296875	-262.6511535644532	1482.393432617188	-1428.35791015625	-215.1395263671876	1494.336059570313	-1430.717651367188	-224.1764678955079	1464.1005859375	-1483.383911132813	-187.9531707763672	1449.473388671875	-1515.26123046875	-150.8101196289063	1379.88330078125	-1480.655151367188	85.91565704345705	1446.820678710938	-1570.150024414063	56.4940872192383	1433.186767578125	-1636.10107421875	140.5145568847657	1487.87548828125	-1603.781494140625	-293.4935913085938	1563.875610351563	-973.5692138671877	-179.1742248535157	1474.930297851563	-830.3101196289065	-148.113037109375	1509.409912109375	-848.5127563476565	-111.7975082397461	1481.733276367188	-810.8211669921877	-66.28191375732423	1478.007202148438	-799.091735839844	-54.13838577270509	1404.751098632813	-846.2117919921877	187.90673828125	1485.637451171875	-895.6406250000002	196.4728088378907	1462.5419921875	-823.8325805664065	260.8487548828126	1513.906860351563	-899.3642578125002	-227.7544708251954	1046.692993164063	-1194.447998046875	-244.0983581542969	1044.923828125	-966.822204589844	-411.989471435547	1125.024536132813	-1094.171264648438	-425.832000732422	1099.095458984375	-1121.73388671875	-432.054412841797	1099.90673828125	-1067.609130859375	-328.8696899414063	836.5502929687502	-1253.488037109375	-292.9429321289063	761.7987060546876	-1236.265869140625	-245.8792114257813	767.3461303710939	-1224.983032226563	-319.1604309082032	708.8436889648439	-1226.305419921875	-302.2875366210938	529.9686279296876	-1187.947143554688	-312.3395690917969	524.8817749023439	-1068.708251953125	-291.9982299804688	343.4790954589844	-1110.266845703125	-334.7057189941407	296.7915649414063	-1173.309692382813	-297.8669738769532	293.5554199218751	-1142.099487304688	-311.9495239257813	220.3002624511719	-1102.73388671875	-372.5174865722657	126.7509765625	-1137.585327148438	-343.4981384277344	137.7176513671875	-1054.176635742188	-441.5156555175782	111.9370193481446	-1098.043212890625	-239.1285095214844	62.75550460815431	-1051.020263671875	-227.3618927001954	55.39364242553712	-1094.49267578125	-269.9846191406251	40.05003738403321	-1152.378784179688	-357.6654357910157	790.7994384765627	-882.955749511719	-315.7009887695313	739.7670288085939	-870.806579589844	-283.0242919921876	742.6559448242189	-873.1634521484377	-338.3937377929688	657.8220214843751	-878.3225708007815	-344.2066650390626	565.7580566406251	-875.585144042969	-323.4832153320313	519.6082153320314	-980.6311645507815	-464.5921325683595	459.1985168457032	-886.5141601562502	-566.6326293945314	500.9763183593751	-909.8403320312502	-552.0100097656251	459.6128845214845	-894.2973632812502	-579.9481201171876	412.3230895996095	-919.197692871094	-711.9263305664064	416.8016662597657	-935.9667968750002	-663.8889160156251	376.9530639648438	-995.741149902344	-730.5178833007814	452.410614013672	-1009.190490722656	-713.0075073242189	240.4212188720704	-972.043395996094	-730.6007690429689	245.137924194336	-922.3113403320315	-775.8562011718752	290.4056091308594	-901.6322021484377	-4216.569335937501	853.1027832031252	-3944.870117187501	nan	nan	nan	nan	nan	nan	
3	0.01	-182.5791320800782	1773.1533203125	-1111.473510742188	-358.4768066406251	1696.058959960938	-1179.851318359375	-332.5885620117188	1700.447021484375	-1028.709838867188	-388.2637023925782	1548.43505859375	-1114.220825195313	-405.5814819335939	1235.1650390625	-1095.879150390625	-228.1407928466797	1492.842163085938	-1123.485961914063	-320.3590393066407	1548.10986328125	-1272.073364257813	-261.4404907226563	1483.8720703125	-1428.178100585938	-213.9473724365235	1495.772094726563	-1430.16064453125	-222.6707458496094	1465.994995117188	-1483.093017578125	-186.2965087890625	1451.428833007813	-1514.852661132813	-149.2683410644532	1381.579956054688	-1480.479125976563	88.6933059692383	1449.452392578125	-1570.764526367188	57.99346923828126	1436.098266601563	-1636.095703125	141.7441558837891	1490.903564453125	-1603.552978515625	-293.1669311523438	1564.177001953125	-974.0770263671877	-178.2602233886719	1476.92236328125	-830.5882568359377	-147.4261932373047	1511.217041015625	-849.2016601562502	-110.9017868041992	1484.192504882813	-811.168884277344	-65.36073303222658	1480.70458984375	-799.580505371094	-52.55428695678712	1407.390747070313	-846.8245239257815	188.7550659179688	1489.478759765625	-895.4520263671877	197.5309448242188	1466.4912109375	-823.5913085937502	261.3085632324219	1518.028564453125	-899.2590942382815	-228.0476989746094	1046.624389648438	-1194.5537109375	-244.3601226806641	1044.6884765625	-966.960632324219	-412.2575988769532	1125.13818359375	-1094.227172851563	-423.4101867675782	1098.228759765625	-1121.977905273438	-433.7291870117189	1099.938232421875	-1067.992797851563	-329.4053649902344	836.5146484375002	-1253.679321289063	-293.2978515625001	761.7844848632814	-1236.558959960938	-246.171859741211	767.3869018554689	-1225.259155273438	-319.3904418945313	708.8152465820314	-1226.470336914063	-302.3899536132813	529.9872436523439	-1188.224365234375	-312.1441040039063	524.9421386718751	-1068.885986328125	-291.9791564941407	343.5122985839844	-1110.635498046875	-334.8724975585938	296.8393554687501	-1173.703857421875	-298.0412902832032	293.6146240234376	-1142.481689453125	-311.7902526855469	220.3816680908204	-1103.266723632813	-372.6119384765626	126.7090682983399	-1137.779541015625	-343.4822692871094	137.8348236083985	-1054.365478515625	-441.6026306152345	111.9318161010742	-1098.261840820313	-239.1204071044922	62.93299865722658	-1051.121826171875	-227.0427398681641	54.715633392334	-1094.8212890625	-270.0178833007813	39.93608474731446	-1152.429931640625	-358.4883422851563	790.7342529296877	-883.2578125000002	-316.3585510253907	739.5932617187501	-870.9918212890627	-283.7802124023438	742.5351562500001	-873.401794433594	-339.2438659667969	657.6066284179689	-878.7940063476565	-344.8897094726563	565.5366210937501	-876.1054687500002	-324.2231445312501	519.4858398437501	-981.0095214843752	-465.7579956054689	458.5656127929689	-888.9833984375002	-567.5346679687501	500.4910583496095	-910.171081542969	-552.9031372070314	459.0420837402345	-894.7905273437502	-580.5977783203126	411.601776123047	-919.714782714844	-712.5899658203126	416.1582336425782	-936.4693603515627	-664.4797363281251	376.5155639648438	-996.2799072265627	-731.1867065429689	451.8122558593751	-1009.687683105469	-713.6277465820314	239.6895446777344	-972.7375488281252	-730.9456787109376	244.3010559082032	-923.0119628906252	-776.4880981445315	289.4349670410157	-902.4971313476565	-4216.651855468751	853.0950927734377	-3944.856201171876	nan	nan	nan	nan	nan	nan	
4	0.015	-182.1802673339844	1773.09130859375	-1111.47216796875	-358.0275268554688	1695.888793945313	-1180.004272460938	-332.2612304687501	1700.33203125	-1028.796020507813	-387.8532714843751	1548.479248046875	-1114.359741210938	-405.584197998047	1235.301391601563	-1095.90625	-227.8700103759766	1492.693969726563	-1123.502807617188	-319.9472351074219	1548.313110351563	-1271.938354492188	-260.2130737304688	1485.34130859375	-1427.992919921875	-212.6851348876954	1497.159790039063	-1429.662841796875	-221.1200408935547	1467.868774414063	-1482.893432617188	-184.8243865966797	1453.447998046875	-1514.405029296875	-147.4477844238282	1383.542724609375	-1480.169189453125	89.02262115478517	1452.154052734375	-1570.027465820313	59.44188690185548	1438.992431640625	-1636.084716796875	142.9146881103516	1493.83203125	-1603.32470703125	-292.9552307128907	1564.428344726563	-974.5171508789065	-177.82568359375	1478.887573242188	-830.398132324219	-146.8893737792969	1513.401977539063	-849.7500000000002	-109.9205703735352	1486.655151367188	-811.8529052734377	-64.07484436035158	1483.405639648438	-800.6577758789065	-51.68281936645509	1409.951049804688	-846.4714965820315	189.7300567626953	1492.797607421875	-895.3634033203127	198.6288757324219	1470.705444335938	-823.2987060546877	261.8058471679688	1522.087280273438	-899.1350097656252	-228.3166198730469	1046.546997070313	-1194.706298828125	-244.5530090332032	1044.517578125	-967.1643066406252	-412.3985900878907	1125.259521484375	-1094.265380859375	-426.668670654297	1099.515869140625	-1121.822998046875	-434.214324951172	1099.984252929688	-1068.097290039063	-329.8204040527344	836.548278808594	-1253.84912109375	-293.6179809570313	761.7947998046876	-1236.858520507813	-246.5406951904297	767.4065551757814	-1225.537353515625	-319.6667480468751	708.7448120117189	-1226.63330078125	-301.8784179687501	530.0203247070314	-1188.169067382813	-311.6854553222657	524.9048461914064	-1069.13818359375	-291.7338562011719	343.5697631835938	-1110.944213867188	-334.9835510253907	296.8566589355469	-1173.992309570313	-298.8646850585938	293.9623107910157	-1142.927490234375	-311.8827514648438	220.1454772949219	-1103.012451171875	-372.7017211914063	126.6830596923828	-1138.006713867188	-343.3537597656251	137.8951110839844	-1054.655029296875	-441.5227355957032	111.9396286010742	-1098.349243164063	-239.1016235351563	63.03285598754884	-1051.284790039063	-227.0795440673829	54.7854690551758	-1094.951171875	-269.9672851562501	39.77694320678712	-1152.474243164063	-359.2754516601563	790.5515747070315	-883.5445556640627	-317.3778076171876	739.4780883789064	-871.2332763671877	-284.7712097167969	742.4547729492189	-873.5559082031252	-339.9284057617188	657.4953002929689	-879.0921630859377	-345.5865478515626	565.3041992187501	-876.5184326171877	-324.9977111816407	519.3341674804689	-981.3824462890627	-466.5437622070314	458.2929077148439	-889.257751464844	-568.3800048828126	500.1445617675782	-910.5899658203127	-553.5966796875001	458.5793762207032	-895.2879638671877	-581.2794799804689	410.9744567871095	-920.2150878906252	-713.3461303710939	415.5340270996095	-937.0554809570315	-665.2045288085939	376.1033935546876	-996.8460693359377	-732.1741943359376	451.494354248047	-1010.157104492188	-714.0128784179689	238.9604797363282	-973.5581054687502	-731.3195190429689	243.7516021728516	-923.7403564453127	-776.9878540039065	288.3691101074219	-903.3054199218752	-4216.569335937501	853.1027832031252	-3944.870117187501	nan	nan	nan	nan	nan	nan	
